<svg xmlns="http://www.w3.org/2000/svg" viewBox="0 0 145.36 149"><title>Asset 4</title><g id="Layer_2" data-name="Layer 2"><g id="Layer_1-2" data-name="Layer 1"><path d="M145,143.17A73.41,73.41,0,0,0,90.56,82.81a43.93,43.93,0,1,0-39,.92A73.39,73.39,0,0,0,.36,143.17L0,145.48A3.08,3.08,0,0,0,3.08,149H142.27a3.08,3.08,0,0,0,3.05-3.52ZM36.41,43.93A33.72,33.72,0,1,1,70.13,77.65,33.76,33.76,0,0,1,36.41,43.93M15.66,138.78a3.08,3.08,0,0,1-3-4,62.85,62.85,0,0,1,119.94,0,3.08,3.08,0,0,1-3,4Z"/></g></g></svg>