<svg xmlns="http://www.w3.org/2000/svg" viewBox="0 0 152.62 146"><title>Asset 3</title><g id="Layer_2" data-name="Layer 2"><g id="Layer_1-2" data-name="Layer 1"><path d="M135.33,35a2.81,2.81,0,0,0-2.78-2.37H113.82a37.88,37.88,0,0,0-75,0H20.07A2.81,2.81,0,0,0,17.29,35L0,144.38A1.41,1.41,0,0,0,1.41,146H151.22a1.4,1.4,0,0,0,1.39-1.62Zm-59-24.14a27.07,27.07,0,0,1,26.53,21.77H49.78A27.07,27.07,0,0,1,76.31,10.82Zm60.87,124.59H15.44a2.81,2.81,0,0,1-2.78-3.25L26.34,45.55a2.81,2.81,0,0,1,2.78-2.37h94.39a2.81,2.81,0,0,1,2.78,2.37L140,132.17A2.81,2.81,0,0,1,137.18,135.42Z"/></g></g></svg>