<svg xmlns="http://www.w3.org/2000/svg" viewBox="0 0 153.48 134"><title>Asset 1</title><g id="Layer_2" data-name="Layer 2"><g id="Layer_1-2" data-name="Layer 1"><path d="M77.67,27.64l2.41-2.34c6-5.87,18-15.72,30.22-15.72,21.35,0,33.59,11.74,33.59,32.21,0,15-12.8,28.23-16.91,32.11L78.59,120a2.67,2.67,0,0,1-3.69,0L26.24,73.59c-.17-.14-16.66-15.07-16.66-31.8,0-20.47,12.24-32.21,33.59-32.21,12.22,0,24.19,9.85,30.23,15.72l2.41,2.34a1.34,1.34,0,0,0,1.86,0m-.94-12.3C69,8.57,56.62,0,43.17,0,16.54,0,0,16,0,41.79,0,63.24,19.75,80.65,19.79,80.67l55.1,52.58a2.68,2.68,0,0,0,3.69,0l55.17-52.57c4.63-4.37,19.73-20.09,19.73-38.9C153.48,16,136.93,0,110.3,0,96.84,0,84.44,8.57,76.74,15.34"/></g></g></svg>